<svg height="512" viewBox="0 0 512 512" width="512" xmlns="http://www.w3.org/2000/svg"><path d="M279.863 16.69l32.407 29.308 42.719-9.178c17.861-3.837 35.725 6.477 41.332 23.863l13.411 41.585 41.585 13.411c17.387 5.607 27.701 23.471 23.863 41.332l-9.178 42.719 29.308 32.407c12.254 13.549 12.254 34.177 0 47.726l-29.308 32.407 9.178 42.719c3.837 17.861-6.477 35.725-23.863 41.332l-41.585 13.411-13.411 41.585c-5.607 17.387-23.471 27.701-41.332 23.863l-42.719-9.178-32.407 29.308c-13.549 12.254-34.177 12.254-47.726 0l-32.407-29.308-42.719 9.178c-17.861 3.837-35.725-6.477-41.332-23.863l-13.411-41.585-41.585-13.411c-17.387-5.607-27.701-23.471-23.863-41.332l9.178-42.719-29.308-32.407c-12.254-13.549-12.254-34.177 0-47.726l29.308-32.407-9.178-42.719c-3.837-17.861 6.477-35.725 23.863-41.332l41.585-13.411 13.411-41.585c5.607-17.387 23.471-27.701 41.332-23.863l42.719 9.178 32.407-29.308c13.549-12.253 34.177-12.253 47.726 0z" fill="#ffb357"/><path d="M256 443.985c-103.655 0-187.985-84.33-187.985-187.985S152.345 68.015 256 68.015 443.985 152.345 443.985 256 359.655 443.985 256 443.985z" fill="#fce3a0"/><path d="M170.015 256c0-85.986 58.032-158.669 136.985-180.952-16.224-4.579-33.331-7.034-51-7.034-103.655 0-187.985 84.33-187.985 187.985S152.345 443.985 256 443.985c17.669 0 34.776-2.455 51-7.034C228.047 414.669 170.015 341.986 170.015 256z" fill="#ffce71"/><ellipse cx="176.831" cy="248.263" fill="#ff8e9e" rx="29.212" ry="23.263" transform="translate(.779 -.553)"/><ellipse cx="335.169" cy="248.759" fill="#ff8e9e" rx="29.212" ry="23.263" transform="rotate(-180 335.152 248.78)"/><g fill="#313d40"><path d="M191.5 206a7.5 7.5 0 0 0-7.5 7.5v10a7.5 7.5 0 0 0 15 0v-10a7.5 7.5 0 0 0-7.5-7.5zM319.5 206a7.5 7.5 0 0 0-7.5 7.5v10a7.5 7.5 0 0 0 15 0v-10a7.5 7.5 0 0 0-7.5-7.5zM275.235 234.734a7.497 7.497 0 0 0-10.001 3.531C263.568 241.749 259.943 244 256 244s-7.568-2.251-9.234-5.735a7.5 7.5 0 0 0-13.532 6.47C237.377 253.401 246.313 259 256 259s18.623-5.599 22.766-14.265a7.5 7.5 0 0 0-3.531-10.001z"/></g><path d="M199 223.5v-10a7.5 7.5 0 0 0-15 0v10a7.5 7.5 0 0 0 15 0zM327 223.5v-10a7.5 7.5 0 0 0-15 0v10a7.5 7.5 0 0 0 15 0zM256 259c9.687 0 18.623-5.599 22.766-14.265a7.499 7.499 0 0 0-3.531-10.001 7.497 7.497 0 0 0-10.001 3.531C263.568 241.749 259.943 244 256 244s-7.568-2.251-9.234-5.735a7.5 7.5 0 0 0-13.532 6.47C237.377 253.401 246.313 259 256 259z"/><path d="M163.957 100.796c3.559-2.119 4.727-6.722 2.607-10.281s-6.723-4.725-10.281-2.607c-28.624 17.042-52.609 41.267-69.363 70.053C69.646 187.642 60.515 221.543 60.515 256c0 107.791 87.694 195.485 195.485 195.485S451.485 363.791 451.485 256 363.791 60.515 256 60.515h-.004c-24.758 0-48.904 4.591-71.768 13.646a7.5 7.5 0 0 0 5.524 13.946C210.85 79.751 233.139 75.514 256 75.515c99.52 0 180.485 80.965 180.485 180.485S355.52 436.485 256 436.485 75.515 355.52 75.515 256c0-63.253 33.889-122.724 88.442-155.204z"/><path d="M512 256a43 43 0 0 0-11.128-28.895l-26.731-29.557c9.167-42.662 9.338-42.012 9.338-48.034 0-18.749-12-35.214-29.86-40.974L415.69 96.31l-12.231-37.929c-5.76-17.86-22.227-29.859-40.975-29.859-6.096 0-5.764.256-48.034 9.337l-29.556-26.731A42.996 42.996 0 0 0 256 0a42.983 42.983 0 0 0-28.895 11.128l-29.557 26.731c-42.663-9.166-42.015-9.337-48.034-9.337-18.749 0-35.215 12-40.975 29.859L96.31 96.31l-37.929 12.231c-17.86 5.76-29.859 22.227-29.859 40.975 0 6.097.257 5.767 9.337 48.034l-26.731 29.556C3.952 235.04 0 245.301 0 256s3.952 20.96 11.128 28.895l26.731 29.557c-9.166 42.663-9.337 42.015-9.337 48.034 0 18.749 12 35.215 29.859 40.975L96.31 415.69l12.231 37.929c5.76 17.86 22.227 29.859 40.975 29.859 6.097 0 5.767-.257 48.034-9.337l29.556 26.731C235.04 508.048 245.301 512 256 512s20.96-3.952 28.895-11.128l29.557-26.731c42.64 9.161 42.009 9.337 48.035 9.337 18.748 0 35.214-12 40.974-29.86l1.914-5.937a7.5 7.5 0 1 0-14.276-4.602l-1.913 5.936c-3.755 11.642-14.484 19.464-26.698 19.464-4.052 0-2.051.2-48.641-9.81a7.503 7.503 0 0 0-6.606 1.77l-32.406 29.308C269.661 494.424 262.973 497 256 497s-13.661-2.576-18.832-7.253l-32.406-29.308a7.503 7.503 0 0 0-6.606-1.77c-46.815 10.058-44.66 9.81-48.64 9.81-12.214 0-22.944-7.822-26.698-19.463l-13.411-41.585a7.502 7.502 0 0 0-4.836-4.836l-41.585-13.411c-11.642-3.754-19.463-14.483-19.463-26.698 0-4.052-.2-2.05 9.81-48.64a7.5 7.5 0 0 0-1.77-6.606l-29.308-32.406C17.576 269.661 15 262.973 15 256s2.576-13.661 7.253-18.832l29.308-32.406a7.5 7.5 0 0 0 1.77-6.606c-10.058-46.815-9.81-44.66-9.81-48.64 0-12.214 7.822-22.944 19.463-26.698l41.585-13.411a7.502 7.502 0 0 0 4.836-4.836l13.411-41.585c3.754-11.642 14.483-19.463 26.698-19.463 4.052 0 2.05-.2 48.64 9.81a7.5 7.5 0 0 0 6.606-1.77l32.407-29.308A27.963 27.963 0 0 1 256 15a28.024 28.024 0 0 1 18.832 7.253l32.406 29.308a7.5 7.5 0 0 0 6.606 1.77c46.816-10.058 44.661-9.81 48.64-9.81 12.215 0 22.944 7.822 26.699 19.463l13.41 41.585a7.498 7.498 0 0 0 4.836 4.836l41.585 13.411c11.642 3.754 19.464 14.483 19.464 26.698 0 4.043.207 2.014-9.811 48.64a7.496 7.496 0 0 0 1.771 6.606l29.309 32.406C494.424 242.339 497 249.027 497 256s-2.576 13.661-7.253 18.832l-29.309 32.406a7.503 7.503 0 0 0-1.771 6.606l9.179 42.718c.419 1.952.632 3.944.632 5.921 0 12.214-7.822 22.943-19.464 26.698l-41.585 13.411a7.505 7.505 0 0 0-4.837 4.837l-2.288 7.097a7.5 7.5 0 0 0 14.276 4.602l1.109-3.439 37.928-12.231c17.86-5.76 29.86-22.227 29.86-40.974 0-3.034-.325-6.086-.966-9.072l-8.372-38.962 26.731-29.556A42.989 42.989 0 0 0 512 256z"/></svg>