<svg height="512" viewBox="0 0 512 512" width="512" xmlns="http://www.w3.org/2000/svg"><path d="M279.863 16.69l32.407 29.308 42.719-9.178c17.861-3.837 35.725 6.477 41.332 23.863l13.411 41.585 41.585 13.411c17.387 5.607 27.701 23.471 23.863 41.332l-9.178 42.719 29.308 32.407c12.254 13.549 12.254 34.177 0 47.726l-29.308 32.407 9.178 42.719c3.837 17.861-6.477 35.725-23.863 41.332l-41.585 13.411-13.411 41.585c-5.607 17.387-23.471 27.701-41.332 23.863l-42.719-9.178-32.407 29.308c-13.549 12.254-34.177 12.254-47.726 0l-32.407-29.308-42.719 9.178c-17.861 3.837-35.725-6.477-41.332-23.863l-13.411-41.585-41.585-13.411c-17.387-5.607-27.701-23.471-23.863-41.332l9.178-42.719-29.308-32.407c-12.254-13.549-12.254-34.177 0-47.726l29.308-32.407-9.178-42.719c-3.837-17.861 6.477-35.725 23.863-41.332l41.585-13.411 13.411-41.585c5.607-17.387 23.471-27.701 41.332-23.863l42.719 9.178 32.407-29.308c13.549-12.253 34.177-12.253 47.726 0z" fill="#ffb357"/><path d="M256 443.985c-103.655 0-187.985-84.33-187.985-187.985S152.345 68.015 256 68.015 443.985 152.345 443.985 256 359.655 443.985 256 443.985z" fill="#fce3a0"/><ellipse cx="116.831" cy="248.31" fill="#ff8e9e" rx="29.212" ry="23.263" transform="translate(.779 -.365)"/><ellipse cx="275.169" cy="248.806" fill="#ff8e9e" rx="29.212" ry="23.263" transform="rotate(-180 275.152 248.824)"/><path d="M320.262 79.412c-27.451-9.991-55.701-13.193-82.923-10.469-3.92.392-7.284 2.958-8.631 6.66-1.747 4.8.309 10.194 4.86 12.513 67.097 34.206 99.661 113.765 73.23 186.383-26.527 72.883-102.772 112.547-175.902 95.703-4.977-1.147-10.019 1.662-11.766 6.462l-.002.004c-1.347 3.702-.42 7.83 2.331 10.65 19.102 19.583 42.801 35.29 70.252 45.282 97.169 35.367 205.197-14.312 240.869-112.319 35.532-97.621-14.731-205.351-112.318-240.869z" fill="#82888b"/><path d="M277.989 95.336c-15.624-5.687-31.555-8.755-47.319-9.451a9.92 9.92 0 0 0 2.898 2.231c67.097 34.206 99.661 113.765 73.23 186.383-26.527 72.883-102.772 112.547-175.902 95.703a9.951 9.951 0 0 0-3.658-.153c12.524 9.602 26.701 17.491 42.327 23.179 81.956 29.83 173.072-12.071 203.159-94.734 29.968-82.337-12.427-173.2-94.735-203.158z" fill="#676f72"/><path d="M256 60.515C148.209 60.515 60.515 148.209 60.515 256S148.209 451.485 256 451.485 451.485 363.791 451.485 256 363.791 60.515 256 60.515zm0 375.97c-51.258 0-97.593-21.48-130.48-55.91a6.9 6.9 0 0 0 .658-1.345c.455-1.246 1.764-2.012 3.035-1.719 77.07 17.752 156.867-24.159 184.633-100.446 22.25-61.128 4.434-126.309-38.333-168.005a7.5 7.5 0 1 0-10.47 10.74c38.912 37.938 54.779 96.997 34.708 152.135-24.48 67.259-95.963 107.36-167.172 90.959-6.549-1.506-13.194.887-17.391 5.868C90.38 337.847 75.515 298.63 75.515 256c0-87.404 62.455-160.488 145.079-176.989-.052 6.648 3.6 12.745 9.567 15.787 4.314 2.2 8.563 4.645 12.63 7.268a7.5 7.5 0 0 0 8.131-12.605c-13.204-8.519-16.425-7.832-15.167-11.291a7.526 7.526 0 0 0 .383-1.558 181.511 181.511 0 0 1 19.863-1.098c99.52 0 180.485 80.965 180.485 180.485S355.52 436.485 256 436.485z"/><path d="M512 256a43 43 0 0 0-11.128-28.895l-26.731-29.557c9.167-42.662 9.338-42.012 9.338-48.034 0-18.749-12-35.214-29.86-40.974L415.69 96.31l-12.231-37.929c-6.838-21.202-28.45-33.532-50.045-28.893l-38.964 8.371-29.556-26.73A42.991 42.991 0 0 0 255.999 0a42.986 42.986 0 0 0-28.893 11.128L197.55 37.859l-38.965-8.372c-21.593-4.634-43.204 7.683-50.044 28.894L96.31 96.31l-37.928 12.231c-21.194 6.835-33.532 28.433-28.895 50.046l8.372 38.962-26.731 29.556A43 43 0 0 0 0 256a43 43 0 0 0 11.128 28.895l26.731 29.557c-9.167 42.662-9.338 42.012-9.338 48.034 0 18.749 12 35.214 29.86 40.974l37.929 12.23 12.231 37.929c6.838 21.202 28.45 33.532 50.045 28.893l38.964-8.371 29.556 26.73A42.99 42.99 0 0 0 256 512a42.998 42.998 0 0 0 28.894-11.128l29.557-26.731 38.965 8.372c21.593 4.634 43.204-7.683 50.044-28.894l1.914-5.937a7.5 7.5 0 1 0-14.276-4.602l-1.913 5.936a28.01 28.01 0 0 1-32.619 18.833l-42.72-9.178a7.5 7.5 0 0 0-6.605 1.77l-32.407 29.308A28.04 28.04 0 0 1 256 497a28.025 28.025 0 0 1-18.833-7.253l-32.406-29.308a7.502 7.502 0 0 0-6.605-1.77l-42.72 9.178a28.01 28.01 0 0 1-32.619-18.832l-13.41-41.585a7.498 7.498 0 0 0-4.836-4.836l-41.585-13.411c-11.642-3.754-19.464-14.483-19.464-26.698 0-4.043-.207-2.014 9.811-48.64a7.496 7.496 0 0 0-1.771-6.606l-29.309-32.406C17.576 269.661 15 262.973 15 256s2.576-13.661 7.253-18.832l29.309-32.406a7.503 7.503 0 0 0 1.771-6.606l-9.179-42.718a28.008 28.008 0 0 1 18.832-32.619l41.585-13.411a7.502 7.502 0 0 0 4.836-4.836l13.41-41.584a28.01 28.01 0 0 1 32.619-18.833l42.72 9.178a7.502 7.502 0 0 0 6.605-1.77l32.407-29.308c10.785-9.755 27.068-9.586 37.665 0l32.406 29.308a7.5 7.5 0 0 0 6.605 1.77l42.72-9.178a28.01 28.01 0 0 1 32.619 18.832l13.41 41.585a7.498 7.498 0 0 0 4.836 4.836l41.585 13.411c11.642 3.754 19.464 14.483 19.464 26.698 0 4.043.207 2.014-9.811 48.64a7.496 7.496 0 0 0 1.771 6.606l29.309 32.406C494.424 242.339 497 249.027 497 256s-2.576 13.661-7.253 18.832l-29.309 32.406a7.503 7.503 0 0 0-1.771 6.606l9.179 42.718a28.008 28.008 0 0 1-18.832 32.619l-41.585 13.411a7.505 7.505 0 0 0-4.837 4.837l-2.288 7.097a7.5 7.5 0 0 0 14.276 4.602l1.109-3.439 37.928-12.231c21.194-6.835 33.532-28.433 28.895-50.046l-8.372-38.962 26.731-29.556A42.993 42.993 0 0 0 512 256z"/><path d="M131.5 206a7.5 7.5 0 0 0-7.5 7.5v10a7.5 7.5 0 0 0 15 0v-10a7.5 7.5 0 0 0-7.5-7.5zM252 213.5v10a7.5 7.5 0 0 0 15 0v-10a7.5 7.5 0 0 0-15 0zM215.235 234.734a7.497 7.497 0 0 0-10.001 3.531C203.568 241.749 199.943 244 196 244s-7.568-2.251-9.234-5.735a7.5 7.5 0 0 0-13.532 6.47C177.377 253.401 186.313 259 196 259s18.623-5.599 22.766-14.265a7.5 7.5 0 0 0-3.531-10.001zM342 260.391a7.501 7.501 0 0 0-7.5 7.501v10a7.5 7.5 0 0 0 15-.001v-10a7.5 7.5 0 0 0-7.5-7.5zM410 260.391a7.5 7.5 0 0 0-7.5 7.5v10a7.501 7.501 0 0 0 15 .001v-10a7.5 7.5 0 0 0-7.5-7.501zM391.737 268.89c-3.736-1.791-8.215-.207-10.002 3.529-.913 1.908-3.016 3.19-5.234 3.19h-.001c-2.218 0-4.321-1.281-5.233-3.188a7.5 7.5 0 0 0-10.001-3.531c-10.435 4.99.047 21.72 15.233 21.72h.004c7.994 0 15.359-4.6 18.764-11.718a7.5 7.5 0 0 0-3.53-10.002z"/></svg>