<svg height="512" viewBox="0 0 512 512" width="512" xmlns="http://www.w3.org/2000/svg"><path d="M256 7.5c-66.377 0-128.781 25.849-175.716 72.784C33.349 127.22 7.5 189.624 7.5 256s25.849 128.78 72.784 175.716C127.219 478.651 189.623 504.5 256 504.5c17.487 0 34.693-1.812 51.418-5.313V12.813A250.796 250.796 0 0 0 256 7.5z" fill="#d4d4d5"/><path d="M504.5 256c0-66.376-25.849-128.78-72.784-175.716-34.57-34.57-77.538-57.683-124.298-67.471-46.761 9.788-89.728 32.901-124.298 67.471-46.936 46.936-72.784 109.34-72.784 175.716s25.849 128.78 72.784 175.716c34.57 34.57 77.538 57.683 124.298 67.471 46.761-9.788 89.728-32.901 124.298-67.471C478.651 384.78 504.5 322.376 504.5 256z" fill="#efedee"/><g fill="#d4d4d5"><circle cx="403.836" cy="304" r="45"/><circle cx="183.835" cy="124" r="30"/><circle cx="312" cy="421" r="15"/></g><circle cx="67.5" cy="256" fill="#b9bbbc" r="15"/><circle cx="373.836" cy="109" fill="#d4d4d5" r="15"/><path d="M183.462 432.053l-61.848-101.686C106.976 341.308 97.5 358.775 97.5 378.456c0 33.137 26.863 60 60 60 9.437 0 18.019-2.521 25.962-6.403-.227-.226.227.227 0 0z" fill="#b9bbbc"/><path d="M217.501 378.456c0-33.137-26.863-60-60-60-13.456 0-25.878 4.43-35.886 11.911 11.814 37.841 33.016 72.854 61.848 101.686.227.227-.228-.226 0 0 19.95-9.748 34.038-29.896 34.038-53.597z" fill="#d4d4d5"/><ellipse cx="176.831" cy="228.263" fill="#ff8e9e" rx="29.212" ry="23.263" transform="translate(.716 -.553)"/><ellipse cx="335.169" cy="228.759" fill="#ff8e9e" rx="29.212" ry="23.263" transform="rotate(-180 335.153 228.78)"/><path d="M47.916 47.916a47.476 47.476 0 0 0 12.956-5.49c4.837-2.96 4.837-9.892 0-12.852a47.505 47.505 0 0 0-12.956-5.489 47.476 47.476 0 0 0-5.49-12.956c-2.96-4.837-9.892-4.837-12.852 0a47.5 47.5 0 0 0-5.49 12.957 47.505 47.505 0 0 0-12.956 5.489c-4.837 2.96-4.837 9.892 0 12.852a47.476 47.476 0 0 0 12.956 5.49 47.476 47.476 0 0 0 5.49 12.956c2.96 4.837 9.892 4.837 12.852 0a47.496 47.496 0 0 0 5.49-12.957zM447.965 448.115a66.656 66.656 0 0 0 18.184-7.705c6.789-4.155 6.789-13.883 0-18.038a66.623 66.623 0 0 0-18.184-7.704 66.675 66.675 0 0 0-7.705-18.185c-4.155-6.789-13.883-6.789-18.038 0a66.649 66.649 0 0 0-7.705 18.185 66.684 66.684 0 0 0-18.184 7.704c-6.789 4.155-6.789 13.883 0 18.038a66.656 66.656 0 0 0 18.184 7.705 66.669 66.669 0 0 0 7.705 18.184c4.155 6.789 13.883 6.789 18.038 0a66.682 66.682 0 0 0 7.705-18.184z" fill="#ffce71"/><path d="M512 256C512 114.508 397.504 0 256 0 178.534 0 107.615 34.162 59.052 92.416a7.5 7.5 0 0 0 11.521 9.605C116.102 47.408 182.759 15 256 15c133.2 0 241 107.788 241 241 0 52.335-16.175 101.46-46.888 142.897a74.026 74.026 0 0 0-3.455-6.33c-7.088-11.581-23.756-11.557-30.833 0a74.195 74.195 0 0 0-7.361 16.045 74.278 74.278 0 0 0-16.045 7.361c-11.581 7.088-11.557 23.757 0 30.832a73.893 73.893 0 0 0 6.3 3.44C357.317 480.872 308.255 497 256 497 122.797 497 15 389.211 15 256c0-46.665 13.254-91.812 38.33-130.562a7.5 7.5 0 1 0-12.593-8.148C14.086 158.472 0 206.437 0 256c0 141.494 114.498 256 256 256 29.819 0 58.984-5.042 86.684-14.987 24.425-8.768 47.237-21.185 67.955-36.956a74.3 74.3 0 0 0 5.186 10.157c7.089 11.581 23.759 11.557 30.833 0a74.19 74.19 0 0 0 7.361-16.045 74.188 74.188 0 0 0 16.046-7.362c11.581-7.089 11.557-23.762-.002-30.833a74.325 74.325 0 0 0-10.13-5.176C493.835 366.337 512 312.461 512 256zm-49.766 172.769c2.014 1.233 2.016 4.01 0 5.244a59.19 59.19 0 0 1-16.141 6.84c-7.115 1.833-3.796 7.748-12.231 21.531-1.23 2.013-4.01 2.017-5.243.001-8.419-13.759-5.119-19.67-12.214-21.528-5.689-1.591-10.538-3.405-16.156-6.844-2.015-1.233-2.018-4.011-.001-5.244 13.78-8.432 19.698-5.114 21.531-12.231a59.215 59.215 0 0 1 6.839-16.139c1.234-2.015 4.011-2.018 5.245 0 3.411 5.573 5.25 10.457 6.833 16.119 1.818 7.132 7.749 3.813 21.538 12.251z"/><path d="M184 193.5v10a7.5 7.5 0 0 0 15 0v-10a7.5 7.5 0 0 0-15 0zM327 203.5v-10a7.5 7.5 0 0 0-15 0v10a7.5 7.5 0 0 0 15 0zM256 239c9.687 0 18.623-5.599 22.766-14.265a7.499 7.499 0 0 0-3.531-10.001 7.497 7.497 0 0 0-10.001 3.531C263.568 221.749 259.943 224 256 224s-7.568-2.251-9.234-5.735a7.5 7.5 0 0 0-13.532 6.47C237.377 233.401 246.313 239 256 239zM403.836 266.5c4.143 0 7.5-3.357 7.5-7.5s-3.357-7.5-7.5-7.5c-28.948 0-52.5 23.552-52.5 52.5s23.552 52.5 52.5 52.5c16.779 0 32.682-8.122 42.538-21.726a7.499 7.499 0 0 0-1.673-10.474 7.498 7.498 0 0 0-10.474 1.673c-7.044 9.722-18.405 15.526-30.392 15.526-20.678 0-37.5-16.822-37.5-37.5s16.823-37.499 37.501-37.499zM161.607 102.506a7.503 7.503 0 0 0-10.248 2.734 37.505 37.505 0 0 0-5.023 18.76c0 20.678 16.822 37.5 37.5 37.5s37.5-16.822 37.5-37.5c0-21.377-17.939-38.482-39.282-37.458a7.5 7.5 0 0 0-7.135 7.848c.197 4.139 3.715 7.352 7.848 7.135 12.855-.603 23.569 9.686 23.569 22.476 0 12.406-10.093 22.5-22.5 22.5s-22.5-10.094-22.5-22.5c0-3.958 1.04-7.848 3.007-11.246a7.502 7.502 0 0 0-2.736-10.249zM156.68 430.91c-18.69 0-36.03-10.471-45.25-27.311-2.01-3.655-6.593-4.961-10.18-2.97-3.63 1.99-4.96 6.55-2.98 10.18A68.198 68.198 0 0 0 122.5 436.2c20.501 12.522 45.947 12.467 64.57 2.529h.01c.02-.02.05-.029.06-.04 6.747 0 54.068-35.649 32.55-86.51-10.259-24.259-34.219-41.199-62.19-41.229-4.13 0-7.5 3.369-7.5 7.51 0 4.13 3.37 7.5 7.5 7.5 14.02 0 27.2 5.46 37.12 15.37 33.263 33.329 8.915 89.58-37.94 89.58zM97.5 370.95c-4.13 0-7.5 3.369-7.5 7.51 0 4.13 3.37 7.5 7.5 7.5 4.14 0 7.5-3.37 7.5-7.5v-.021c-.01-4.129-3.37-7.489-7.5-7.489zM7.213 48.823a54.93 54.93 0 0 0 10.853 5.111 55.093 55.093 0 0 0 5.111 10.853c5.892 9.627 19.766 9.607 25.647 0a55.016 55.016 0 0 0 5.111-10.853 55.035 55.035 0 0 0 10.852-5.111c9.627-5.89 9.608-19.768 0-25.646a54.93 54.93 0 0 0-10.853-5.111 55.07 55.07 0 0 0-5.111-10.853C46.059 2.696 41.265 0 36 0S25.941 2.696 23.176 7.214a55.031 55.031 0 0 0-5.111 10.852 55.061 55.061 0 0 0-10.852 5.111C2.696 25.94 0 30.734 0 36s2.696 10.06 7.213 12.823zm18.74-17.474a7.502 7.502 0 0 0 5.395-5.394 38.401 38.401 0 0 1 4.682-10.912 39.968 39.968 0 0 1 4.624 10.912 7.5 7.5 0 0 0 5.395 5.394 38.409 38.409 0 0 1 10.91 4.68 39.978 39.978 0 0 1-10.911 4.625 7.498 7.498 0 0 0-5.393 5.393 38.43 38.43 0 0 1-4.682 10.912 39.997 39.997 0 0 1-4.624-10.911 7.5 7.5 0 0 0-5.393-5.394 38.458 38.458 0 0 1-10.912-4.682 39.912 39.912 0 0 1 10.909-4.623z"/></svg>